<?xml version="1.0" encoding="UTF-8" standalone="no"?><!DOCTYPE svg PUBLIC "-//W3C//DTD SVG 1.1//EN" "http://www.w3.org/Graphics/SVG/1.1/DTD/svg11.dtd"><svg width="100%" height="100%" viewBox="0 0 56 56" version="1.1" xmlns="http://www.w3.org/2000/svg" xmlns:xlink="http://www.w3.org/1999/xlink" xml:space="preserve" xmlns:serif="http://www.serif.com/" style="fill-rule:evenodd;clip-rule:evenodd;stroke-linejoin:round;stroke-miterlimit:1.41421;"><g><path d="M36.985,0l-29.022,0c-0.808,0 -1.463,0.655 -1.463,1.926l0,53.074c0,0.345 0.655,1 1.463,1l40.074,0c0.808,0 1.463,-0.655 1.463,-1l0,-42.022c0,-0.696 -0.093,-0.92 -0.257,-1.085l-11.636,-11.636c-0.165,-0.164 -0.389,-0.257 -0.622,-0.257Z" style="fill:#e9e9e0;fill-rule:nonzero;"/><path d="M37.5,0.151l0,11.849l11.849,0l-11.849,-11.849Z" style="fill:#d9d7ca;fill-rule:nonzero;"/><path d="M48.037,56l-40.074,0c-0.808,0 -1.463,-0.655 -1.463,-1.463l0,-15.537l43,0l0,15.537c0,0.808 -0.655,1.463 -1.463,1.463Z" style="fill:#f36fa0;fill-rule:nonzero;"/><text x="13.375px" y="52.849px" style="font-family:'OpenSans-Semibold', 'Open Sans', sans-serif;font-weight:600;font-size:13.991px;fill:#fff;">R<tspan x="22.559px 31.399px " y="52.849px 52.849px ">PT</tspan></text><path d="M23.5,16l0,-4l-12,0l0,22l33,0l0,-4l0,-2l0,-2l0,-2l0,-2l0,-2l0,-4l-21,0Zm-10,-2l8,0l0,2l-8,0l0,-2Zm0,4l8,0l0,2l-8,0l0,-2Zm0,4l8,0l0,2l-8,0l0,-2Zm0,4l8,0l0,2l-8,0l0,-2Zm8,6l-8,0l0,-2l8,0l0,2Zm21,0l-19,0l0,-2l19,0l0,2Zm0,-4l-19,0l0,-2l19,0l0,2Zm0,-4l-19,0l0,-2l19,0l0,2Zm-19,-4l0,-2l19,0l0,2l-19,0Z" style="fill:#c8bdb8;fill-rule:nonzero;"/></g></svg>